<svg xmlns="http://www.w3.org/2000/svg" xmlns:xlink="http://www.w3.org/1999/xlink" width="500" zoomAndPan="magnify" viewBox="0 0 375 374.999991" height="500" preserveAspectRatio="xMidYMid meet" version="1.0"><defs><g/><clipPath id="5c220d303e"><path d="M 187.5 0 C 83.945312 0 0 83.945312 0 187.5 C 0 291.054688 83.945312 375 187.5 375 C 291.054688 375 375 291.054688 375 187.5 C 375 83.945312 291.054688 0 187.5 0 " clip-rule="nonzero"/></clipPath><clipPath id="1e059ae70b"><path d="M 47 153 L 303 153 L 303 330 L 47 330 Z M 47 153 " clip-rule="nonzero"/></clipPath><clipPath id="ca565b4506"><path d="M 60.304688 153.976562 L 311.4375 174.859375 L 298.574219 329.574219 L 47.441406 308.691406 Z M 60.304688 153.976562 " clip-rule="nonzero"/></clipPath><clipPath id="836f749793"><path d="M 9.824219 149.777344 L 311.035156 174.824219 L 297.300781 340.003906 L -3.910156 314.957031 Z M 9.824219 149.777344 " clip-rule="nonzero"/></clipPath></defs><g clip-path="url(#5c220d303e)"><rect x="-37.5" width="450" fill="#050816" y="-37.499999" height="449.999989" fill-opacity="1"/><path stroke-linecap="butt" transform="matrix(0.75, 0, 0, 0.75, 0.0000045, 0.000000000000042633)" fill="none" stroke-linejoin="miter" d="M 249.999994 -0.000000000000056843 C 111.927078 -0.000000000000056843 -0.000006 111.927084 -0.000006 250 C -0.000006 388.072917 111.927078 500.000001 249.999994 500.000001 C 388.072911 500.000001 499.999995 388.072917 499.999995 250 C 499.999995 111.927084 388.072911 -0.000000000000056843 249.999994 -0.000000000000056843 " stroke="#915eff" stroke-width="8" stroke-opacity="1" stroke-miterlimit="4"/></g><g fill="#915eff" fill-opacity="1"><g transform="translate(53.848797, 239.639508)"><g><path d="M 13.40625 0 L 13.40625 -114.609375 L 52.953125 -114.609375 L 52.953125 -102.546875 L 53.390625 -102.546875 C 63.671875 -112.816406 74.617188 -117.953125 86.234375 -117.953125 C 94.578125 -117.953125 102.394531 -116.238281 109.6875 -112.8125 C 116.988281 -109.394531 122.5 -104.109375 126.21875 -96.953125 C 137.84375 -110.953125 150.503906 -117.953125 164.203125 -117.953125 C 176.410156 -117.953125 186.910156 -114.523438 195.703125 -107.671875 C 204.492188 -100.828125 208.890625 -90.109375 208.890625 -75.515625 L 208.890625 0 L 169.34375 0 L 169.34375 -64.78125 C 169.34375 -70.894531 167.664062 -76 164.3125 -80.09375 C 160.957031 -84.1875 155.929688 -86.234375 149.234375 -86.234375 C 143.421875 -86.234375 138.988281 -84.484375 135.9375 -80.984375 C 132.882812 -77.484375 131.210938 -73.273438 130.921875 -68.359375 L 130.921875 0 L 91.375 0 L 91.375 -64.78125 C 91.375 -70.894531 89.695312 -76 86.34375 -80.09375 C 82.988281 -84.1875 77.960938 -86.234375 71.265625 -86.234375 C 65.160156 -86.234375 60.582031 -84.332031 57.53125 -80.53125 C 54.476562 -76.738281 52.953125 -72.234375 52.953125 -67.015625 L 52.953125 0 Z M 13.40625 0 "/></g></g></g><g fill="#915eff" fill-opacity="1"><g transform="translate(262.730952, 239.639508)"><g><path d="M 38.875 -47.8125 C 46.019531 -47.8125 52.085938 -45.316406 57.078125 -40.328125 C 62.066406 -35.335938 64.5625 -29.269531 64.5625 -22.125 C 64.5625 -15.113281 62.066406 -9.113281 57.078125 -4.125 C 52.085938 0.851562 46.019531 3.34375 38.875 3.34375 C 31.875 3.34375 25.878906 0.851562 20.890625 -4.125 C 15.898438 -9.113281 13.40625 -15.113281 13.40625 -22.125 C 13.40625 -29.269531 15.898438 -35.335938 20.890625 -40.328125 C 25.878906 -45.316406 31.875 -47.8125 38.875 -47.8125 Z M 38.875 -47.8125 "/></g></g></g><g clip-path="url(#1e059ae70b)"><g clip-path="url(#ca565b4506)"><g clip-path="url(#836f749793)"><path fill="#050816" d="M 50.585938 153.167969 C 64.355469 154.398438 64.820312 170.65625 85.308594 177.824219 C 99.542969 182.800781 139.753906 168.046875 170.253906 184.859375 C 188.195312 194.75 188.148438 211.347656 201.992188 222.972656 C 223.078125 240.691406 260.5625 226.796875 284.964844 242.3125 C 307.519531 256.65625 307.835938 289.089844 288.648438 308.542969 C 258.460938 339.144531 186.351562 331.164062 162.710938 328.542969 C 146.644531 326.765625 57.183594 316.859375 19.269531 264.375 C -8.816406 225.488281 8.101562 186.363281 24.546875 167.796875 C 28.539062 163.285156 38.707031 152.105469 50.585938 153.167969 Z M 50.585938 153.167969 " fill-opacity="1" fill-rule="nonzero"/></g></g></g><g fill="#ffffff" fill-opacity="1"><g transform="translate(69.593118, 199.513005)"><g><path d="M 1.390625 -7.453125 C 1.546875 -6.710938 1.832031 -6.035156 2.25 -5.421875 C 2.675781 -4.816406 3.1875 -4.320312 3.78125 -3.9375 C 4.375 -3.550781 5.023438 -3.28125 5.734375 -3.125 C 6.441406 -2.96875 7.171875 -2.972656 7.921875 -3.140625 C 8.671875 -3.296875 9.335938 -3.585938 9.921875 -4.015625 C 10.515625 -4.441406 11.003906 -4.953125 11.390625 -5.546875 C 11.773438 -6.140625 12.039062 -6.800781 12.1875 -7.53125 C 12.34375 -8.257812 12.34375 -8.992188 12.1875 -9.734375 C 12.03125 -10.484375 11.734375 -11.160156 11.296875 -11.765625 C 10.867188 -12.367188 10.351562 -12.867188 9.75 -13.265625 C 9.15625 -13.671875 8.5 -13.945312 7.78125 -14.09375 C 7.070312 -14.238281 6.34375 -14.234375 5.59375 -14.078125 C 4.84375 -13.910156 4.175781 -13.617188 3.59375 -13.203125 C 3.007812 -12.785156 2.523438 -12.269531 2.140625 -11.65625 C 1.765625 -11.050781 1.503906 -10.382812 1.359375 -9.65625 C 1.222656 -8.9375 1.234375 -8.203125 1.390625 -7.453125 Z M -0.234375 -7.109375 C -0.441406 -8.078125 -0.453125 -9.023438 -0.265625 -9.953125 C -0.0859375 -10.878906 0.25 -11.726562 0.75 -12.5 C 1.257812 -13.269531 1.894531 -13.929688 2.65625 -14.484375 C 3.425781 -15.035156 4.296875 -15.414062 5.265625 -15.625 C 6.234375 -15.820312 7.1875 -15.828125 8.125 -15.640625 C 9.070312 -15.453125 9.925781 -15.109375 10.6875 -14.609375 C 11.445312 -14.109375 12.101562 -13.46875 12.65625 -12.6875 C 13.207031 -11.914062 13.585938 -11.046875 13.796875 -10.078125 C 14.023438 -9.015625 14.015625 -7.976562 13.765625 -6.96875 C 13.515625 -5.957031 13.085938 -5.054688 12.484375 -4.265625 L 15.359375 -4.875 L 15.6875 -3.328125 L 9.671875 -2.046875 C 9.191406 -1.835938 8.71875 -1.6875 8.25 -1.59375 C 7.28125 -1.382812 6.332031 -1.375 5.40625 -1.5625 C 4.476562 -1.75 3.628906 -2.085938 2.859375 -2.578125 C 2.085938 -3.078125 1.429688 -3.710938 0.890625 -4.484375 C 0.347656 -5.265625 -0.0234375 -6.140625 -0.234375 -7.109375 Z M -0.234375 -7.109375 "/></g></g></g><g fill="#ffffff" fill-opacity="1"><g transform="translate(86.732676, 196.090238)"><g><path d="M 9.0625 -0.671875 L 7.421875 -0.515625 L 7.3125 -1.71875 L 7.28125 -2.609375 C 7.070312 -1.960938 6.6875 -1.414062 6.125 -0.96875 C 5.570312 -0.53125 4.941406 -0.28125 4.234375 -0.21875 C 3.441406 -0.132812 2.800781 -0.28125 2.3125 -0.65625 C 1.832031 -1.03125 1.546875 -1.546875 1.453125 -2.203125 L 0.9375 -7.640625 L 2.59375 -7.796875 L 3.03125 -3.125 C 3.082031 -2.757812 3.238281 -2.457031 3.5 -2.21875 C 3.757812 -1.988281 4.144531 -1.890625 4.65625 -1.921875 C 4.988281 -1.953125 5.304688 -2.039062 5.609375 -2.1875 C 5.921875 -2.332031 6.1875 -2.519531 6.40625 -2.75 C 6.625 -2.988281 6.789062 -3.257812 6.90625 -3.5625 C 7.03125 -3.875 7.078125 -4.207031 7.046875 -4.5625 L 6.703125 -8.1875 L 8.34375 -8.34375 Z M 9.0625 -0.671875 "/></g></g></g><g fill="#ffffff" fill-opacity="1"><g transform="translate(97.982814, 195.063135)"><g><path d="M 2.65625 -3.78125 C 2.65625 -3.125 2.867188 -2.570312 3.296875 -2.125 C 3.734375 -1.675781 4.300781 -1.457031 5 -1.46875 C 5.6875 -1.46875 6.25 -1.691406 6.6875 -2.140625 C 7.125 -2.597656 7.34375 -3.15625 7.34375 -3.8125 C 7.332031 -4.476562 7.109375 -5.023438 6.671875 -5.453125 C 6.234375 -5.890625 5.671875 -6.109375 4.984375 -6.109375 C 4.285156 -6.097656 3.71875 -5.875 3.28125 -5.4375 C 2.851562 -5 2.644531 -4.445312 2.65625 -3.78125 Z M 0.96875 -3.75 C 0.957031 -4.269531 1.054688 -4.769531 1.265625 -5.25 C 1.472656 -5.738281 1.753906 -6.164062 2.109375 -6.53125 C 2.460938 -6.894531 2.882812 -7.1875 3.375 -7.40625 C 3.875 -7.625 4.40625 -7.734375 4.96875 -7.734375 C 5.320312 -7.734375 5.648438 -7.675781 5.953125 -7.5625 C 6.265625 -7.457031 6.535156 -7.34375 6.765625 -7.21875 C 6.992188 -7.101562 7.175781 -6.984375 7.3125 -6.859375 C 7.457031 -6.742188 7.53125 -6.664062 7.53125 -6.625 C 7.519531 -6.769531 7.523438 -6.921875 7.546875 -7.078125 C 7.578125 -7.242188 7.59375 -7.40625 7.59375 -7.5625 L 8.96875 -7.5625 L 9.015625 -0.046875 L 7.5625 -0.046875 L 7.5625 -0.875 C 7.5625 -0.832031 7.5 -0.753906 7.375 -0.640625 C 7.257812 -0.535156 7.09375 -0.421875 6.875 -0.296875 C 6.664062 -0.179688 6.398438 -0.078125 6.078125 0.015625 C 5.765625 0.109375 5.410156 0.15625 5.015625 0.15625 C 4.453125 0.15625 3.921875 0.0546875 3.421875 -0.140625 C 2.929688 -0.347656 2.503906 -0.632812 2.140625 -1 C 1.773438 -1.363281 1.488281 -1.78125 1.28125 -2.25 C 1.070312 -2.71875 0.96875 -3.21875 0.96875 -3.75 Z M 0.96875 -3.75 "/></g></g></g><g fill="#ffffff" fill-opacity="1"><g transform="translate(108.90806, 195.035429)"><g><path d="M 2.25 -7.359375 L 3.703125 -7.234375 L 3.6875 -7.0625 C 3.675781 -6.75 3.671875 -6.460938 3.671875 -6.203125 C 3.671875 -5.941406 3.675781 -5.644531 3.6875 -5.3125 C 4.007812 -5.9375 4.476562 -6.410156 5.09375 -6.734375 C 5.71875 -7.066406 6.390625 -7.207031 7.109375 -7.15625 C 7.890625 -7.09375 8.488281 -6.835938 8.90625 -6.390625 C 9.332031 -5.941406 9.53125 -5.378906 9.5 -4.703125 L 9.0625 0.734375 L 7.40625 0.59375 L 7.78125 -4.078125 C 7.78125 -4.441406 7.675781 -4.765625 7.46875 -5.046875 C 7.269531 -5.328125 6.914062 -5.5 6.40625 -5.5625 C 6.050781 -5.582031 5.710938 -5.546875 5.390625 -5.453125 C 5.066406 -5.359375 4.773438 -5.210938 4.515625 -5.015625 C 4.265625 -4.828125 4.050781 -4.59375 3.875 -4.3125 C 3.707031 -4.03125 3.613281 -3.71875 3.59375 -3.375 L 3.296875 0.265625 L 1.640625 0.125 Z M 2.25 -7.359375 "/></g></g></g><g fill="#ffffff" fill-opacity="1"><g transform="translate(119.495975, 195.905393)"><g><path d="M 3.265625 -3.28125 C 3.160156 -2.632812 3.28125 -2.050781 3.625 -1.53125 C 3.96875 -1.019531 4.488281 -0.707031 5.1875 -0.59375 C 5.863281 -0.476562 6.453125 -0.601562 6.953125 -0.96875 C 7.460938 -1.34375 7.769531 -1.851562 7.875 -2.5 C 7.988281 -3.15625 7.867188 -3.734375 7.515625 -4.234375 C 7.160156 -4.742188 6.644531 -5.054688 5.96875 -5.171875 C 5.269531 -5.285156 4.671875 -5.160156 4.171875 -4.796875 C 3.679688 -4.441406 3.378906 -3.9375 3.265625 -3.28125 Z M 8.78125 -6.140625 L 10.140625 -5.90625 L 8.84375 1.828125 L 8.6875 2.6875 C 8.601562 3.207031 8.421875 3.675781 8.140625 4.09375 C 7.867188 4.519531 7.519531 4.867188 7.09375 5.140625 C 6.675781 5.421875 6.21875 5.617188 5.71875 5.734375 C 5.21875 5.859375 4.691406 5.875 4.140625 5.78125 C 3.535156 5.6875 2.976562 5.460938 2.46875 5.109375 C 1.96875 4.753906 1.535156 4.410156 1.171875 4.078125 C 1.398438 3.878906 1.625 3.679688 1.84375 3.484375 C 2.0625 3.285156 2.28125 3.09375 2.5 2.90625 C 2.726562 3.15625 3 3.394531 3.3125 3.625 C 3.632812 3.851562 3.988281 4 4.375 4.0625 C 4.71875 4.125 5.039062 4.117188 5.34375 4.046875 C 5.644531 3.972656 5.914062 3.851562 6.15625 3.6875 C 6.40625 3.53125 6.609375 3.316406 6.765625 3.046875 C 6.929688 2.773438 7.039062 2.472656 7.09375 2.140625 L 7.3125 0.8125 C 7.34375 0.757812 7.378906 0.707031 7.421875 0.65625 C 7.472656 0.601562 7.515625 0.546875 7.546875 0.484375 C 7.503906 0.535156 7.410156 0.597656 7.265625 0.671875 C 7.117188 0.753906 6.929688 0.828125 6.703125 0.890625 C 6.472656 0.953125 6.203125 1 5.890625 1.03125 C 5.585938 1.0625 5.265625 1.046875 4.921875 0.984375 C 4.359375 0.890625 3.851562 0.695312 3.40625 0.40625 C 2.957031 0.125 2.582031 -0.21875 2.28125 -0.625 C 1.988281 -1.039062 1.773438 -1.5 1.640625 -2 C 1.515625 -2.5 1.5 -3.015625 1.59375 -3.546875 C 1.675781 -4.054688 1.859375 -4.53125 2.140625 -4.96875 C 2.429688 -5.40625 2.785156 -5.769531 3.203125 -6.0625 C 3.617188 -6.363281 4.085938 -6.578125 4.609375 -6.703125 C 5.128906 -6.835938 5.671875 -6.859375 6.234375 -6.765625 C 6.578125 -6.703125 6.890625 -6.585938 7.171875 -6.421875 C 7.453125 -6.265625 7.695312 -6.109375 7.90625 -5.953125 C 8.113281 -5.796875 8.273438 -5.644531 8.390625 -5.5 C 8.503906 -5.363281 8.554688 -5.273438 8.546875 -5.234375 C 8.566406 -5.378906 8.601562 -5.53125 8.65625 -5.6875 C 8.707031 -5.84375 8.75 -5.992188 8.78125 -6.140625 Z M 8.78125 -6.140625 "/></g></g></g><g fill="#ffffff" fill-opacity="1"><g transform="translate(130.455064, 197.858519)"><g/></g></g><g fill="#ffffff" fill-opacity="1"><g transform="translate(137.013724, 199.145531)"><g><path d="M 6.8125 -13.140625 C 7.4375 -11.222656 8.054688 -9.316406 8.671875 -7.421875 C 9.285156 -5.523438 9.90625 -3.625 10.53125 -1.71875 C 12.21875 -2.789062 13.898438 -3.867188 15.578125 -4.953125 C 17.253906 -6.035156 18.9375 -7.125 20.625 -8.21875 L 15.703125 5.59375 L 14.140625 5.046875 L 17.3125 -3.828125 C 17.351562 -3.921875 17.394531 -4.015625 17.4375 -4.109375 C 17.488281 -4.210938 17.535156 -4.316406 17.578125 -4.421875 C 16.304688 -3.472656 14.992188 -2.582031 13.640625 -1.75 C 12.296875 -0.925781 10.960938 -0.0820312 9.640625 0.78125 C 9.191406 -0.625 8.738281 -2.023438 8.28125 -3.421875 C 7.832031 -4.828125 7.382812 -6.234375 6.9375 -7.640625 L 6.78125 -8.265625 C 6.757812 -8.160156 6.734375 -8.050781 6.703125 -7.9375 C 6.671875 -7.832031 6.644531 -7.734375 6.625 -7.640625 L 3.453125 1.234375 L 1.890625 0.671875 Z M 6.8125 -13.140625 "/></g></g></g><g fill="#ffffff" fill-opacity="1"><g transform="translate(155.184395, 206.038143)"><g><path d="M 5.3125 -9.015625 C 5.445312 -9.296875 5.648438 -9.476562 5.921875 -9.5625 C 6.203125 -9.65625 6.46875 -9.644531 6.71875 -9.53125 C 6.9375 -9.425781 7.101562 -9.238281 7.21875 -8.96875 C 7.332031 -8.695312 7.320312 -8.421875 7.1875 -8.140625 C 7.0625 -7.867188 6.859375 -7.6875 6.578125 -7.59375 C 6.296875 -7.507812 6.046875 -7.519531 5.828125 -7.625 C 5.578125 -7.738281 5.394531 -7.929688 5.28125 -8.203125 C 5.175781 -8.472656 5.1875 -8.742188 5.3125 -9.015625 Z M 2.5625 1.203125 L 1.046875 0.484375 L 4.234375 -6.3125 L 5.75 -5.59375 Z M 2.5625 1.203125 "/></g></g></g><g fill="#ffffff" fill-opacity="1"><g transform="translate(159.556477, 208.015245)"><g><path d="M 5.046875 -5.8125 L 6.34375 -5.09375 L 6.265625 -4.9375 C 6.117188 -4.644531 5.992188 -4.378906 5.890625 -4.140625 C 5.785156 -3.910156 5.664062 -3.644531 5.53125 -3.34375 C 6.082031 -3.78125 6.707031 -4.019531 7.40625 -4.0625 C 8.113281 -4.113281 8.785156 -3.96875 9.421875 -3.625 C 10.109375 -3.238281 10.550781 -2.753906 10.75 -2.171875 C 10.945312 -1.585938 10.894531 -1.003906 10.59375 -0.421875 L 7.96875 4.359375 L 6.53125 3.578125 L 8.78125 -0.53125 C 8.925781 -0.875 8.957031 -1.210938 8.875 -1.546875 C 8.800781 -1.890625 8.546875 -2.191406 8.109375 -2.453125 C 7.796875 -2.617188 7.472656 -2.722656 7.140625 -2.765625 C 6.816406 -2.816406 6.5 -2.804688 6.1875 -2.734375 C 5.875 -2.660156 5.582031 -2.53125 5.3125 -2.34375 C 5.039062 -2.15625 4.820312 -1.910156 4.65625 -1.609375 L 2.90625 1.59375 L 1.4375 0.78125 Z M 5.046875 -5.8125 "/></g></g></g><g fill="#ffffff" fill-opacity="1"><g transform="translate(168.864934, 213.131442)"><g><path d="M 9.703125 -11.59375 L 11.09375 -10.65625 L 6.359375 -3.5625 L 5.8125 -2.859375 C 6.414062 -3.234375 7.046875 -3.410156 7.703125 -3.390625 C 8.367188 -3.378906 9.035156 -3.179688 9.703125 -2.796875 C 10.359375 -2.347656 10.757812 -1.828125 10.90625 -1.234375 C 11.050781 -0.640625 10.945312 -0.0546875 10.59375 0.515625 L 7.5625 5.046875 L 6.1875 4.125 L 8.78125 0.21875 C 8.96875 -0.101562 9.035156 -0.429688 8.984375 -0.765625 C 8.941406 -1.109375 8.710938 -1.429688 8.296875 -1.734375 C 8.003906 -1.929688 7.691406 -2.066406 7.359375 -2.140625 C 7.035156 -2.210938 6.710938 -2.226562 6.390625 -2.1875 C 6.078125 -2.144531 5.773438 -2.039062 5.484375 -1.875 C 5.203125 -1.707031 4.96875 -1.484375 4.78125 -1.203125 L 2.75 1.84375 L 1.359375 0.90625 Z M 9.703125 -11.59375 "/></g></g></g><g fill="#ffffff" fill-opacity="1"><g transform="translate(178.180713, 219.474353)"><g/></g></g><g fill="#ffffff" fill-opacity="1"><g transform="translate(183.565566, 223.547449)"><g><path d="M 1.03125 0.9375 L 10.46875 -9.453125 L 11.6875 -8.34375 L 3.3125 0.875 L 8.6875 5.75 L 7.625 6.921875 Z M 1.03125 0.9375 "/></g></g></g><g fill="#ffffff" fill-opacity="1"><g transform="translate(192.808625, 232.075691)"><g><path d="M 7.671875 -0.625 C 7.304688 -1.019531 6.894531 -1.269531 6.4375 -1.375 C 5.976562 -1.476562 5.539062 -1.441406 5.125 -1.265625 C 4.925781 -1.191406 4.722656 -1.066406 4.515625 -0.890625 C 5.097656 -0.585938 5.6875 -0.289062 6.28125 0 C 6.875 0.300781 7.46875 0.609375 8.0625 0.921875 C 8.101562 0.628906 8.097656 0.347656 8.046875 0.078125 C 7.992188 -0.179688 7.867188 -0.414062 7.671875 -0.625 Z M 8.8125 3.109375 C 7.945312 2.660156 7.085938 2.21875 6.234375 1.78125 C 5.378906 1.351562 4.519531 0.921875 3.65625 0.484375 C 3.570312 0.816406 3.582031 1.160156 3.6875 1.515625 C 3.789062 1.867188 3.984375 2.203125 4.265625 2.515625 C 4.679688 2.960938 5.179688 3.1875 5.765625 3.1875 L 5.578125 4.765625 C 5.109375 4.742188 4.65625 4.640625 4.21875 4.453125 C 3.789062 4.265625 3.40625 3.984375 3.0625 3.609375 C 2.6875 3.191406 2.410156 2.734375 2.234375 2.234375 C 2.054688 1.734375 1.976562 1.226562 2 0.71875 C 2.019531 0.207031 2.132812 -0.28125 2.34375 -0.75 C 2.550781 -1.226562 2.851562 -1.648438 3.25 -2.015625 C 3.65625 -2.378906 4.101562 -2.648438 4.59375 -2.828125 C 5.082031 -3.003906 5.578125 -3.078125 6.078125 -3.046875 C 6.585938 -3.023438 7.085938 -2.90625 7.578125 -2.6875 C 8.066406 -2.46875 8.5 -2.148438 8.875 -1.734375 C 9.15625 -1.429688 9.363281 -1.082031 9.5 -0.6875 C 9.632812 -0.289062 9.691406 0.113281 9.671875 0.53125 C 9.648438 0.945312 9.566406 1.375 9.421875 1.8125 C 9.285156 2.257812 9.082031 2.691406 8.8125 3.109375 Z M 8.8125 3.109375 "/></g></g></g><g fill="#ffffff" fill-opacity="1"><g transform="translate(199.396533, 239.341103)"><g/></g></g></svg>